<svg xmlns="http://www.w3.org/2000/svg" width="1200" height="800" viewBox="0 0 1200 800" role="img" aria-label="Project Two screenshot placeholder">
  <rect width="1200" height="800" fill="#1e293b"/>
  <circle cx="180" cy="180" r="240" fill="#5eead4" opacity="0.08"/>
  <circle cx="1020" cy="620" r="280" fill="#5eead4" opacity="0.06"/>
  <rect x="720" y="120" width="360" height="360" rx="12" fill="#0f172a" stroke="#334155" stroke-width="2"/>
  <g opacity="0.85">
    <rect x="760" y="160" width="90" height="18" rx="6" fill="#5eead4"/>
    <rect x="760" y="200" width="200" height="10" rx="5" fill="#e2e8f0" opacity="0.7"/>
    <rect x="760" y="224" width="260" height="10" rx="5" fill="#94a3b8" opacity="0.6"/>
    <rect x="760" y="262" width="280" height="120" rx="10" fill="#334155"/>
    <rect x="780" y="286" width="240" height="12" rx="6" fill="#cbd5e1" opacity="0.75"/>
    <rect x="780" y="310" width="210" height="10" rx="5" fill="#94a3b8" opacity="0.6"/>
    <rect x="780" y="334" width="230" height="10" rx="5" fill="#94a3b8" opacity="0.6"/>
    <circle cx="772" cy="284" r="6" fill="#5eead4"/>
    <circle cx="772" cy="308" r="6" fill="#5eead4"/>
    <circle cx="772" cy="332" r="6" fill="#5eead4"/>
  </g>
  <rect x="140" y="520" width="520" height="160" rx="12" fill="#0f172a" stroke="#334155" stroke-width="2"/>
  <path d="M340 560 400 600 340 640" fill="none" stroke="#5eead4" stroke-width="4" stroke-linecap="round" stroke-linejoin="round"/>
  <path d="M420 560 480 600 420 640" fill="none" stroke="#334155" stroke-width="4" stroke-linecap="round" stroke-linejoin="round"/>
  <path d="M500 560 560 600 500 640" fill="none" stroke="#334155" stroke-width="4" stroke-linecap="round" stroke-linejoin="round"/>
</svg>
