<svg xmlns="http://www.w3.org/2000/svg" width="1200" height="800" viewBox="0 0 1200 800" role="img" aria-label="Project One screenshot placeholder">
  <rect width="1200" height="800" fill="#1e293b"/>
  <circle cx="940" cy="150" r="220" fill="#5eead4" opacity="0.10"/>
  <circle cx="260" cy="640" r="300" fill="#5eead4" opacity="0.07"/>
  <rect x="120" y="120" width="520" height="360" rx="12" fill="#0f172a" stroke="#334155" stroke-width="2"/>
  <rect x="120" y="120" width="520" height="14" rx="7" fill="#334155"/>
  <rect x="120" y="154" width="520" height="2" fill="#334155"/>
  <rect x="156" y="188" width="320" height="24" rx="6" fill="#334155"/>
  <rect x="156" y="228" width="440" height="12" rx="6" fill="#475569" opacity="0.8"/>
  <rect x="156" y="252" width="400" height="12" rx="6" fill="#475569" opacity="0.8"/>
  <rect x="156" y="276" width="430" height="12" rx="6" fill="#475569" opacity="0.8"/>
  <rect x="156" y="316" width="140" height="14" rx="7" fill="#5eead4" opacity="0.9"/>
  <rect x="120" y="540" width="360" height="140" rx="12" fill="#334155"/>
  <rect x="156" y="576" width="260" height="14" rx="7" fill="#e2e8f0" opacity="0.85"/>
  <rect x="156" y="606" width="220" height="10" rx="5" fill="#94a3b8" opacity="0.7"/>
  <rect x="156" y="630" width="180" height="10" rx="5" fill="#94a3b8" opacity="0.7"/>
  <path d="M150 170 170 190 150 210 130 190Z" fill="#2dd4bf"/>
</svg>
