<svg xmlns="http://www.w3.org/2000/svg" width="1200" height="600" viewBox="0 0 1200 600" role="img" aria-label="Article thumbnail placeholder">
  <rect width="1200" height="600" fill="#1e293b"/>
  <circle cx="980" cy="140" r="220" fill="#5eead4" opacity="0.09"/>
  <circle cx="220" cy="480" r="240" fill="#5eead4" opacity="0.06"/>
  <rect x="320" y="120" width="560" height="360" rx="12" fill="#0f172a" stroke="#334155" stroke-width="2"/>
  <rect x="320" y="120" width="560" height="14" rx="7" fill="#334155"/>
  <rect x="320" y="154" width="560" height="2" fill="#334155"/>
  <path d="M380 420 V400 M430 420 V370 M480 420 V390 M530 420 V330 M580 420 V360 M630 420 V380 M680 420 V280 M730 420 V320 M780 420 V350" stroke="#334155" stroke-width="8" stroke-linecap="round"/>
  <path d="M380 400 430 370 480 390 530 330 580 360 630 380 680 280 730 320 780 350" fill="none" stroke="#5eead4" stroke-width="4" stroke-linecap="round" stroke-linejoin="round"/>
  <rect x="380" y="280" width="30" height="140" rx="4" fill="#5eead4" opacity="0.35"/>
  <rect x="380" y="440" width="400" height="12" rx="6" fill="#475569" opacity="0.7"/>
  <rect x="380" y="466" width="320" height="12" rx="6" fill="#475569" opacity="0.7"/>
</svg>
